<svg width="40" height="40" viewBox="0 0 40 40" fill="none" xmlns="http://www.w3.org/2000/svg">
<g filter="url(#filter0_d_3_124)">
<path fill-rule="evenodd" clip-rule="evenodd" d="M4 16.0893C4 24.044 9.77733 30.6587 17.3333 32V20.444H13.3333V16H17.3333V12.444C17.3333 8.444 19.9107 6.22267 23.556 6.22267C24.7107 6.22267 25.956 6.4 27.1107 6.57733V10.6667H25.0667C23.1107 10.6667 22.6667 11.644 22.6667 12.8893V16H26.9333L26.2227 20.444H22.6667V32C30.2227 30.6587 36 24.0453 36 16.0893C36 7.24 28.8 0 20 0C11.2 0 4 7.24 4 16.0893Z" fill="#F1F1F1"/>
</g>
<defs>
<filter id="filter0_d_3_124" x="0" y="0" width="40" height="40" filterUnits="userSpaceOnUse" color-interpolation-filters="sRGB">
<feFlood flood-opacity="0" result="BackgroundImageFix"/>
<feColorMatrix in="SourceAlpha" type="matrix" values="0 0 0 0 0 0 0 0 0 0 0 0 0 0 0 0 0 0 127 0" result="hardAlpha"/>
<feOffset dy="4"/>
<feGaussianBlur stdDeviation="2"/>
<feComposite in2="hardAlpha" operator="out"/>
<feColorMatrix type="matrix" values="0 0 0 0 0 0 0 0 0 0 0 0 0 0 0 0 0 0 0.25 0"/>
<feBlend mode="normal" in2="BackgroundImageFix" result="effect1_dropShadow_3_124"/>
<feBlend mode="normal" in="SourceGraphic" in2="effect1_dropShadow_3_124" result="shape"/>
</filter>
</defs>
</svg>
