<svg width="269" height="88" viewBox="0 0 269 88" fill="none" xmlns="http://www.w3.org/2000/svg">
<path d="M70.1865 42.0417H43.5635L47.4635 21.5595V21.5371L48.4355 16.4425L70.1865 42.0417Z" fill="url(#paint0_linear_3_63)"/>
<path d="M26.637 42.0415H0L6.89999 33.9248C6.90024 33.919 6.90233 33.9134 6.90584 33.9093C6.90935 33.9052 6.91405 33.9027 6.91901 33.9025L35.102 0.761856L44.419 11.7217L48.432 16.4435L35.102 32.0886L26.637 42.0415Z" fill="url(#paint1_linear_3_63)"/>
<path d="M43.5625 42.0415L39.0295 36.7093L35.1025 32.0898L48.4335 16.4447L43.5625 42.0415Z" fill="url(#paint2_linear_3_63)"/>
<g style="mix-blend-mode:multiply" opacity="0.3">
<g style="mix-blend-mode:multiply" opacity="0.3">
<path d="M39.0295 36.7093L35.1025 32.0898L48.4335 16.4447L39.0295 36.7093Z" fill="black"/>
</g>
</g>
<g style="mix-blend-mode:screen" opacity="0.4">
<g style="mix-blend-mode:screen" opacity="0.4">
<path d="M25.8374 39.7772H4.64941L45.7104 16.4425L33.7454 30.4819L25.8374 39.7772Z" fill="white"/>
</g>
</g>
<g style="mix-blend-mode:screen" opacity="0.4">
<g style="mix-blend-mode:screen" opacity="0.4">
<path d="M45.6074 40.6454L55.6374 27.5305L49.2204 19.8844L45.6074 40.6454Z" fill="white"/>
</g>
</g>
<g style="mix-blend-mode:multiply" opacity="0.3">
<g style="mix-blend-mode:multiply" opacity="0.3">
<path d="M26.637 42.0417H0C2.223 41.8382 4.437 41.7476 6.66 41.6005C8.874 41.4829 11.098 41.3853 13.311 41.3288C15.535 41.2503 17.7553 41.1939 19.972 41.1594C22.08 41.1135 24.188 41.1135 26.296 41.0912C28.018 39.0303 29.78 37.0258 31.522 34.9884C33.36 32.871 35.208 30.7725 37.066 28.6927C38.924 26.613 40.7977 24.545 42.687 22.4888L45.546 19.4539C46.499 18.4352 47.461 17.4271 48.433 16.4425L35.103 32.0876L26.637 42.0417Z" fill="black"/>
</g>
</g>
<g style="mix-blend-mode:multiply" opacity="0.3">
<g style="mix-blend-mode:multiply" opacity="0.3">
<path d="M70.1865 42.0414H43.5635L47.4635 21.5593C47.3005 22.952 47.1075 24.3342 46.9345 25.7258C46.7035 27.5715 46.4145 29.4065 46.1455 31.2545C45.8565 33.0896 45.5965 34.9235 45.2785 36.7574C45.0285 38.2066 44.7875 39.6558 44.5375 41.1098C46.4375 41.0992 48.3295 41.0874 50.2265 41.1098C52.4395 41.1098 54.6635 41.178 56.8775 41.2345C59.0915 41.2909 61.3145 41.3933 63.5375 41.5297C64.6445 41.5744 65.7515 41.6873 66.8585 41.7556C67.9655 41.8238 69.0795 41.9156 70.1865 42.0414Z" fill="black"/>
</g>
</g>
<g style="mix-blend-mode:multiply" opacity="0.3">
<g style="mix-blend-mode:multiply" opacity="0.3">
<path d="M6.46777 34.5119C6.61177 34.3084 6.75677 34.1166 6.90077 33.9237C6.90101 33.9178 6.90309 33.9123 6.9066 33.9082C6.91011 33.9041 6.91481 33.9016 6.91977 33.9014L35.1028 0.760773L44.4198 11.7206C42.7638 10.0679 41.1758 8.33513 39.5488 6.64828C38.0668 5.04024 36.5938 3.43338 35.1308 1.803C32.9468 4.52031 30.7394 7.20742 28.5088 9.86435C26.1418 12.7064 23.7348 15.4907 21.3288 18.2763C18.9228 21.0618 16.4778 23.8132 14.0038 26.5188C12.7628 27.8668 11.5308 29.2243 10.2598 30.55C8.98877 31.8757 7.75777 33.2215 6.46777 34.5119Z" fill="black"/>
</g>
</g>
<path d="M70.1865 46.4269H43.5635L47.4635 66.9091V66.9314L48.4375 72.0296L70.1865 46.4269Z" fill="url(#paint3_linear_3_63)"/>
<path d="M26.637 46.4269H0L6.89999 54.5435C6.90021 54.5495 6.90227 54.5552 6.90576 54.5595C6.90925 54.5639 6.91396 54.5666 6.91901 54.5671L35.102 87.7065L44.419 76.7467L48.437 72.0296L35.107 56.3845L26.637 46.4269Z" fill="url(#paint4_linear_3_63)"/>
<path d="M43.5625 46.4269L39.0295 51.7592L35.1025 56.3845L48.4365 72.0296L43.5625 46.4269Z" fill="url(#paint5_linear_3_63)"/>
<g style="mix-blend-mode:multiply" opacity="0.3">
<g style="mix-blend-mode:multiply" opacity="0.3">
<path d="M39.0295 51.7603L35.1025 56.3845L48.4365 72.0296L39.0295 51.7603Z" fill="black"/>
</g>
</g>
<g style="mix-blend-mode:screen" opacity="0.4">
<g style="mix-blend-mode:screen" opacity="0.4">
<path d="M25.8374 48.6914H4.64941L45.7104 72.0297L33.7454 57.9879L25.8374 48.6914Z" fill="white"/>
</g>
</g>
<g style="mix-blend-mode:screen" opacity="0.4">
<g style="mix-blend-mode:screen" opacity="0.4">
<path d="M45.6074 47.8244L55.6374 60.9392L49.2204 68.5853L45.6074 47.8244Z" fill="white"/>
</g>
</g>
<g style="mix-blend-mode:multiply" opacity="0.3">
<g style="mix-blend-mode:multiply" opacity="0.3">
<path d="M26.637 46.4269H0C2.223 46.6316 4.437 46.7221 6.66 46.8692C8.874 46.9868 11.098 47.0844 13.311 47.1409C15.535 47.2194 17.7553 47.2758 19.972 47.3103C22.08 47.3562 24.188 47.3562 26.296 47.3785C28.018 49.4395 29.78 51.4427 31.522 53.4813C33.36 55.5987 35.208 57.6969 37.066 59.7758C38.924 61.8549 40.7977 63.9232 42.687 65.9809L45.546 69.0159C46.4987 70.0354 47.461 71.0391 48.433 72.0272L35.103 56.3821L26.637 46.4269Z" fill="black"/>
</g>
</g>
<g style="mix-blend-mode:multiply" opacity="0.3">
<g style="mix-blend-mode:multiply" opacity="0.3">
<path d="M70.1865 46.4269H43.5635L47.4635 66.909C47.3005 65.5163 47.1075 64.1353 46.9345 62.7425C46.7035 60.8969 46.4145 59.063 46.1455 57.2138C45.8565 55.3799 45.5965 53.546 45.2785 51.7109C45.0285 50.2617 44.7875 48.8125 44.5375 47.3585C46.4375 47.3703 48.3295 47.3809 50.2265 47.3585C52.4395 47.3585 54.6635 47.2903 56.8775 47.2338C59.0915 47.1774 61.3145 47.0762 63.5375 46.9398C64.6445 46.8951 65.7515 46.781 66.8585 46.7139C67.9655 46.6469 69.0795 46.5516 70.1865 46.4269Z" fill="black"/>
</g>
</g>
<g style="mix-blend-mode:multiply" opacity="0.3">
<g style="mix-blend-mode:multiply" opacity="0.3">
<path d="M6.46777 53.9568C6.61177 54.1603 6.75677 54.3532 6.90077 54.5449C6.90099 54.5508 6.90303 54.5565 6.90652 54.5608C6.91002 54.5652 6.91472 54.5679 6.91977 54.5685L35.1028 87.7079L44.4198 76.7481C42.7638 78.402 41.1758 80.1335 39.5488 81.8216C38.0668 83.4284 36.5938 85.0364 35.1308 86.6668C32.9468 83.9495 30.7394 81.2623 28.5088 78.6055C26.1418 75.7635 23.7348 72.9779 21.3288 70.1936C18.9228 67.4092 16.4778 64.6566 14.0038 61.9499C12.7628 60.603 11.5308 59.2444 10.2598 57.9198C8.98877 56.5953 7.75777 55.2472 6.46777 53.9568Z" fill="black"/>
</g>
</g>
<path d="M108.32 52L103.34 43.45H100.04V52H97.31V31.09H104.06C105.64 31.09 106.97 31.36 108.05 31.9C109.15 32.44 109.97 33.17 110.51 34.09C111.05 35.01 111.32 36.06 111.32 37.24C111.32 38.68 110.9 39.95 110.06 41.05C109.24 42.15 108 42.88 106.34 43.24L111.59 52H108.32ZM100.04 41.26H104.06C105.54 41.26 106.65 40.9 107.39 40.18C108.13 39.44 108.5 38.46 108.5 37.24C108.5 36 108.13 35.04 107.39 34.36C106.67 33.68 105.56 33.34 104.06 33.34H100.04V41.26ZM130.562 43.15C130.562 43.67 130.532 44.22 130.472 44.8H117.332C117.432 46.42 117.982 47.69 118.982 48.61C120.002 49.51 121.232 49.96 122.672 49.96C123.852 49.96 124.832 49.69 125.612 49.15C126.412 48.59 126.972 47.85 127.292 46.93H130.232C129.792 48.51 128.912 49.8 127.592 50.8C126.272 51.78 124.632 52.27 122.672 52.27C121.112 52.27 119.712 51.92 118.472 51.22C117.252 50.52 116.292 49.53 115.592 48.25C114.892 46.95 114.542 45.45 114.542 43.75C114.542 42.05 114.882 40.56 115.562 39.28C116.242 38 117.192 37.02 118.412 36.34C119.652 35.64 121.072 35.29 122.672 35.29C124.232 35.29 125.612 35.63 126.812 36.31C128.012 36.99 128.932 37.93 129.572 39.13C130.232 40.31 130.562 41.65 130.562 43.15ZM127.742 42.58C127.742 41.54 127.512 40.65 127.052 39.91C126.592 39.15 125.962 38.58 125.162 38.2C124.382 37.8 123.512 37.6 122.552 37.6C121.172 37.6 119.992 38.04 119.012 38.92C118.052 39.8 117.502 41.02 117.362 42.58H127.742ZM142.175 35.26C144.175 35.26 145.795 35.87 147.035 37.09C148.275 38.29 148.895 40.03 148.895 42.31V52H146.195V42.7C146.195 41.06 145.785 39.81 144.965 38.95C144.145 38.07 143.025 37.63 141.605 37.63C140.165 37.63 139.015 38.08 138.155 38.98C137.315 39.88 136.895 41.19 136.895 42.91V52H134.165V35.56H136.895V37.9C137.435 37.06 138.165 36.41 139.085 35.95C140.025 35.49 141.055 35.26 142.175 35.26ZM156.685 37.81V47.5C156.685 48.3 156.855 48.87 157.195 49.21C157.535 49.53 158.125 49.69 158.965 49.69H160.975V52H158.515C156.995 52 155.855 51.65 155.095 50.95C154.335 50.25 153.955 49.1 153.955 47.5V37.81H151.825V35.56H153.955V31.42H156.685V35.56H160.975V37.81H156.685ZM193.491 31.24V52H190.761V36.52L183.861 52H181.941L175.011 36.49V52H172.281V31.24H175.221L182.901 48.4L190.581 31.24H193.491ZM205.291 52.27C203.751 52.27 202.351 51.92 201.091 51.22C199.851 50.52 198.871 49.53 198.151 48.25C197.451 46.95 197.101 45.45 197.101 43.75C197.101 42.07 197.461 40.59 198.181 39.31C198.921 38.01 199.921 37.02 201.181 36.34C202.441 35.64 203.851 35.29 205.411 35.29C206.971 35.29 208.381 35.64 209.641 36.34C210.901 37.02 211.891 38 212.611 39.28C213.351 40.56 213.721 42.05 213.721 43.75C213.721 45.45 213.341 46.95 212.581 48.25C211.841 49.53 210.831 50.52 209.551 51.22C208.271 51.92 206.851 52.27 205.291 52.27ZM205.291 49.87C206.271 49.87 207.191 49.64 208.051 49.18C208.911 48.72 209.601 48.03 210.121 47.11C210.661 46.19 210.931 45.07 210.931 43.75C210.931 42.43 210.671 41.31 210.151 40.39C209.631 39.47 208.951 38.79 208.111 38.35C207.271 37.89 206.361 37.66 205.381 37.66C204.381 37.66 203.461 37.89 202.621 38.35C201.801 38.79 201.141 39.47 200.641 40.39C200.141 41.31 199.891 42.43 199.891 43.75C199.891 45.09 200.131 46.22 200.611 47.14C201.111 48.06 201.771 48.75 202.591 49.21C203.411 49.65 204.311 49.87 205.291 49.87ZM220.04 38.62C220.6 37.64 221.42 36.84 222.5 36.22C223.58 35.6 224.81 35.29 226.19 35.29C227.67 35.29 229 35.64 230.18 36.34C231.36 37.04 232.29 38.03 232.97 39.31C233.65 40.57 233.99 42.04 233.99 43.72C233.99 45.38 233.65 46.86 232.97 48.16C232.29 49.46 231.35 50.47 230.15 51.19C228.97 51.91 227.65 52.27 226.19 52.27C224.77 52.27 223.52 51.96 222.44 51.34C221.38 50.72 220.58 49.93 220.04 48.97V52H217.31V29.8H220.04V38.62ZM231.2 43.72C231.2 42.48 230.95 41.4 230.45 40.48C229.95 39.56 229.27 38.86 228.41 38.38C227.57 37.9 226.64 37.66 225.62 37.66C224.62 37.66 223.69 37.91 222.83 38.41C221.99 38.89 221.31 39.6 220.79 40.54C220.29 41.46 220.04 42.53 220.04 43.75C220.04 44.99 220.29 46.08 220.79 47.02C221.31 47.94 221.99 48.65 222.83 49.15C223.69 49.63 224.62 49.87 225.62 49.87C226.64 49.87 227.57 49.63 228.41 49.15C229.27 48.65 229.95 47.94 230.45 47.02C230.95 46.08 231.2 44.98 231.2 43.72ZM238.993 32.89C238.473 32.89 238.033 32.71 237.673 32.35C237.313 31.99 237.133 31.55 237.133 31.03C237.133 30.51 237.313 30.07 237.673 29.71C238.033 29.35 238.473 29.17 238.993 29.17C239.493 29.17 239.913 29.35 240.253 29.71C240.613 30.07 240.793 30.51 240.793 31.03C240.793 31.55 240.613 31.99 240.253 32.35C239.913 32.71 239.493 32.89 238.993 32.89ZM240.313 35.56V52H237.583V35.56H240.313ZM247.696 29.8V52H244.966V29.8H247.696ZM267.349 43.15C267.349 43.67 267.319 44.22 267.259 44.8H254.119C254.219 46.42 254.769 47.69 255.769 48.61C256.789 49.51 258.019 49.96 259.459 49.96C260.639 49.96 261.619 49.69 262.399 49.15C263.199 48.59 263.759 47.85 264.079 46.93H267.019C266.579 48.51 265.699 49.8 264.379 50.8C263.059 51.78 261.419 52.27 259.459 52.27C257.899 52.27 256.499 51.92 255.259 51.22C254.039 50.52 253.079 49.53 252.379 48.25C251.679 46.95 251.329 45.45 251.329 43.75C251.329 42.05 251.669 40.56 252.349 39.28C253.029 38 253.979 37.02 255.199 36.34C256.439 35.64 257.859 35.29 259.459 35.29C261.019 35.29 262.399 35.63 263.599 36.31C264.799 36.99 265.719 37.93 266.359 39.13C267.019 40.31 267.349 41.65 267.349 43.15ZM264.529 42.58C264.529 41.54 264.299 40.65 263.839 39.91C263.379 39.15 262.749 38.58 261.949 38.2C261.169 37.8 260.299 37.6 259.339 37.6C257.959 37.6 256.779 38.04 255.799 38.92C254.839 39.8 254.289 41.02 254.149 42.58H264.529Z" fill="black"/>
<defs>
<linearGradient id="paint0_linear_3_63" x1="-1011.91" y1="161.667" x2="-1011.91" y2="135.402" gradientUnits="userSpaceOnUse">
<stop stop-color="#FC7300"/>
<stop offset="1" stop-color="#F8007A"/>
</linearGradient>
<linearGradient id="paint1_linear_3_63" x1="-1018.57" y1="159.4" x2="-1018.57" y2="213.186" gradientUnits="userSpaceOnUse">
<stop stop-color="#FCC400"/>
<stop offset="0.162" stop-color="#FBC000"/>
<stop offset="0.307" stop-color="#FBB500"/>
<stop offset="0.446" stop-color="#FBA300"/>
<stop offset="0.581" stop-color="#FA8900"/>
<stop offset="0.712" stop-color="#FA6800"/>
<stop offset="0.842" stop-color="#F93F00"/>
<stop offset="0.967" stop-color="#F81000"/>
<stop offset="1" stop-color="#F80300"/>
</linearGradient>
<linearGradient id="paint2_linear_3_63" x1="-1016.39" y1="165.444" x2="-1008.93" y2="163.536" gradientUnits="userSpaceOnUse">
<stop stop-color="#233B55"/>
<stop offset="1" stop-color="#131D32"/>
</linearGradient>
<linearGradient id="paint3_linear_3_63" x1="181.577" y1="161.69" x2="181.577" y2="135.396" gradientUnits="userSpaceOnUse">
<stop stop-color="#FCC400"/>
<stop offset="0.162" stop-color="#FBC000"/>
<stop offset="0.307" stop-color="#FBB500"/>
<stop offset="0.446" stop-color="#FBA300"/>
<stop offset="0.581" stop-color="#FA8900"/>
<stop offset="0.712" stop-color="#FA6800"/>
<stop offset="0.842" stop-color="#F93F00"/>
<stop offset="0.967" stop-color="#F81000"/>
<stop offset="1" stop-color="#F80300"/>
</linearGradient>
<linearGradient id="paint4_linear_3_63" x1="174.906" y1="159.409" x2="174.906" y2="213.197" gradientUnits="userSpaceOnUse">
<stop stop-color="#FC7300"/>
<stop offset="1" stop-color="#F8007A"/>
</linearGradient>
<linearGradient id="paint5_linear_3_63" x1="177.15" y1="165.479" x2="184.62" y2="163.571" gradientUnits="userSpaceOnUse">
<stop stop-color="#233B55"/>
<stop offset="1" stop-color="#131D32"/>
</linearGradient>
</defs>
</svg>
