<svg width="263" height="87" viewBox="0 0 263 87" fill="none" xmlns="http://www.w3.org/2000/svg">
<path d="M70.1865 41.2808H43.5635L47.4635 20.7987V20.7763L48.4355 15.6816L70.1865 41.2808Z" fill="url(#paint0_linear_3_126)"/>
<path d="M26.637 41.2806H0L6.89999 33.164C6.90024 33.1581 6.90233 33.1525 6.90584 33.1484C6.90935 33.1443 6.91405 33.1418 6.91901 33.1416L35.102 0.000976562L44.419 10.9608L48.432 15.6826L35.102 31.3277L26.637 41.2806Z" fill="url(#paint1_linear_3_126)"/>
<path d="M43.5625 41.2807L39.0295 35.9484L35.1025 31.329L48.4335 15.6838L43.5625 41.2807Z" fill="url(#paint2_linear_3_126)"/>
<g style="mix-blend-mode:multiply" opacity="0.3">
<g style="mix-blend-mode:multiply" opacity="0.3">
<path d="M39.0295 35.9484L35.1025 31.329L48.4335 15.6838L39.0295 35.9484Z" fill="black"/>
</g>
</g>
<g style="mix-blend-mode:screen" opacity="0.4">
<g style="mix-blend-mode:screen" opacity="0.4">
<path d="M25.8374 39.0164H4.64941L45.7104 15.6816L33.7454 29.7211L25.8374 39.0164Z" fill="white"/>
</g>
</g>
<g style="mix-blend-mode:screen" opacity="0.4">
<g style="mix-blend-mode:screen" opacity="0.4">
<path d="M45.6074 39.8845L55.6374 26.7696L49.2204 19.1235L45.6074 39.8845Z" fill="white"/>
</g>
</g>
<g style="mix-blend-mode:multiply" opacity="0.3">
<g style="mix-blend-mode:multiply" opacity="0.3">
<path d="M26.637 41.2808H0C2.223 41.0773 4.437 40.9867 6.66 40.8397C8.874 40.7221 11.098 40.6244 13.311 40.568C15.535 40.4895 17.7553 40.433 19.972 40.3986C22.08 40.3527 24.188 40.3527 26.296 40.3304C28.018 38.2694 29.78 36.265 31.522 34.2276C33.36 32.1102 35.208 30.0116 37.066 27.9319C38.924 25.8521 40.7977 23.7842 42.687 21.728L45.546 18.693C46.499 17.6743 47.461 16.6662 48.433 15.6816L35.103 31.3268L26.637 41.2808Z" fill="black"/>
</g>
</g>
<g style="mix-blend-mode:multiply" opacity="0.3">
<g style="mix-blend-mode:multiply" opacity="0.3">
<path d="M70.1865 41.2807H43.5635L47.4635 20.7986C47.3005 22.1914 47.1075 23.5735 46.9345 24.9651C46.7035 26.8108 46.4145 28.6458 46.1455 30.4938C45.8565 32.3289 45.5965 34.1628 45.2785 35.9967C45.0285 37.4459 44.7875 38.8952 44.5375 40.3491C46.4375 40.3385 48.3295 40.3267 50.2265 40.3491C52.4395 40.3491 54.6635 40.4173 56.8775 40.4738C59.0915 40.5303 61.3145 40.6326 63.5375 40.769C64.6445 40.8137 65.7515 40.9267 66.8585 40.9949C67.9655 41.0631 69.0795 41.1549 70.1865 41.2807Z" fill="black"/>
</g>
</g>
<g style="mix-blend-mode:multiply" opacity="0.3">
<g style="mix-blend-mode:multiply" opacity="0.3">
<path d="M6.46777 33.7511C6.61177 33.5476 6.75677 33.3559 6.90077 33.163C6.90101 33.1571 6.90309 33.1515 6.9066 33.1474C6.91011 33.1433 6.91481 33.1408 6.91977 33.1406L35.1028 0L44.4198 10.9598C42.7638 9.30708 41.1758 7.57436 39.5488 5.88751C38.0668 4.27947 36.5938 2.67261 35.1308 1.04223C32.9468 3.75953 30.7394 6.44665 28.5088 9.10358C26.1418 11.9456 23.7348 14.7299 21.3288 17.5155C18.9228 20.301 16.4778 23.0524 14.0038 25.758C12.7628 27.1061 11.5308 28.4635 10.2598 29.7893C8.98877 31.115 7.75777 32.4607 6.46777 33.7511Z" fill="black"/>
</g>
</g>
<path d="M70.1865 45.666H43.5635L47.4635 66.1482V66.1705L48.4375 71.2687L70.1865 45.666Z" fill="url(#paint3_linear_3_126)"/>
<path d="M26.637 45.666H0L6.89999 53.7827C6.90021 53.7887 6.90227 53.7943 6.90576 53.7987C6.90925 53.803 6.91396 53.8057 6.91901 53.8062L35.102 86.9456L44.419 75.9858L48.437 71.2687L35.107 55.6236L26.637 45.666Z" fill="url(#paint4_linear_3_126)"/>
<path d="M43.5625 45.666L39.0295 50.9983L35.1025 55.6236L48.4365 71.2687L43.5625 45.666Z" fill="url(#paint5_linear_3_126)"/>
<g style="mix-blend-mode:multiply" opacity="0.3">
<g style="mix-blend-mode:multiply" opacity="0.3">
<path d="M39.0295 50.9995L35.1025 55.6236L48.4365 71.2688L39.0295 50.9995Z" fill="black"/>
</g>
</g>
<g style="mix-blend-mode:screen" opacity="0.4">
<g style="mix-blend-mode:screen" opacity="0.4">
<path d="M25.8374 47.9307H4.64941L45.7104 71.2689L33.7454 57.2272L25.8374 47.9307Z" fill="white"/>
</g>
</g>
<g style="mix-blend-mode:screen" opacity="0.4">
<g style="mix-blend-mode:screen" opacity="0.4">
<path d="M45.6074 47.0635L55.6374 60.1783L49.2204 67.8244L45.6074 47.0635Z" fill="white"/>
</g>
</g>
<g style="mix-blend-mode:multiply" opacity="0.3">
<g style="mix-blend-mode:multiply" opacity="0.3">
<path d="M26.637 45.666H0C2.223 45.8707 4.437 45.9613 6.66 46.1083C8.874 46.2259 11.098 46.3236 13.311 46.38C15.535 46.4585 17.7553 46.515 19.972 46.5494C22.08 46.5953 24.188 46.5953 26.296 46.6177C28.018 48.6786 29.78 50.6819 31.522 52.7204C33.36 54.8378 35.208 56.936 37.066 59.015C38.924 61.094 40.7977 63.1623 42.687 65.2201L45.546 68.255C46.4987 69.2745 47.461 70.2783 48.433 71.2664L35.103 55.6213L26.637 45.666Z" fill="black"/>
</g>
</g>
<g style="mix-blend-mode:multiply" opacity="0.3">
<g style="mix-blend-mode:multiply" opacity="0.3">
<path d="M70.1865 45.666H43.5635L47.4635 66.1482C47.3005 64.7554 47.1075 63.3744 46.9345 61.9816C46.7035 60.136 46.4145 58.3021 46.1455 56.4529C45.8565 54.619 45.5965 52.7851 45.2785 50.9501C45.0285 49.5008 44.7875 48.0516 44.5375 46.5977C46.4375 46.6094 48.3295 46.62 50.2265 46.5977C52.4395 46.5977 54.6635 46.5294 56.8775 46.473C59.0915 46.4165 61.3145 46.3153 63.5375 46.1789C64.6445 46.1342 65.7515 46.0201 66.8585 45.953C67.9655 45.886 69.0795 45.7907 70.1865 45.666Z" fill="black"/>
</g>
</g>
<g style="mix-blend-mode:multiply" opacity="0.3">
<g style="mix-blend-mode:multiply" opacity="0.3">
<path d="M6.46777 53.196C6.61177 53.3995 6.75677 53.5925 6.90077 53.7842C6.90099 53.7901 6.90303 53.7957 6.90652 53.8001C6.91002 53.8044 6.91472 53.8071 6.91977 53.8077L35.1028 86.9472L44.4198 75.9873C42.7638 77.6413 41.1758 79.3728 39.5488 81.0608C38.0668 82.6677 36.5938 84.2757 35.1308 85.9061C32.9468 83.1888 30.7394 80.5016 28.5088 77.8448C26.1418 75.0028 23.7348 72.2172 21.3288 69.4329C18.9228 66.6485 16.4778 63.8959 14.0038 61.1892C12.7628 59.8423 11.5308 58.4836 10.2598 57.1591C8.98877 55.8345 7.75777 54.4865 6.46777 53.196Z" fill="black"/>
</g>
</g>
<path d="M102.32 54L97.34 45.45H94.04V54H91.31V33.09H98.06C99.64 33.09 100.97 33.36 102.05 33.9C103.15 34.44 103.97 35.17 104.51 36.09C105.05 37.01 105.32 38.06 105.32 39.24C105.32 40.68 104.9 41.95 104.06 43.05C103.24 44.15 102 44.88 100.34 45.24L105.59 54H102.32ZM94.04 43.26H98.06C99.54 43.26 100.65 42.9 101.39 42.18C102.13 41.44 102.5 40.46 102.5 39.24C102.5 38 102.13 37.04 101.39 36.36C100.67 35.68 99.56 35.34 98.06 35.34H94.04V43.26ZM124.562 45.15C124.562 45.67 124.532 46.22 124.472 46.8H111.332C111.432 48.42 111.982 49.69 112.982 50.61C114.002 51.51 115.232 51.96 116.672 51.96C117.852 51.96 118.832 51.69 119.612 51.15C120.412 50.59 120.972 49.85 121.292 48.93H124.232C123.792 50.51 122.912 51.8 121.592 52.8C120.272 53.78 118.632 54.27 116.672 54.27C115.112 54.27 113.712 53.92 112.472 53.22C111.252 52.52 110.292 51.53 109.592 50.25C108.892 48.95 108.542 47.45 108.542 45.75C108.542 44.05 108.882 42.56 109.562 41.28C110.242 40 111.192 39.02 112.412 38.34C113.652 37.64 115.072 37.29 116.672 37.29C118.232 37.29 119.612 37.63 120.812 38.31C122.012 38.99 122.932 39.93 123.572 41.13C124.232 42.31 124.562 43.65 124.562 45.15ZM121.742 44.58C121.742 43.54 121.512 42.65 121.052 41.91C120.592 41.15 119.962 40.58 119.162 40.2C118.382 39.8 117.512 39.6 116.552 39.6C115.172 39.6 113.992 40.04 113.012 40.92C112.052 41.8 111.502 43.02 111.362 44.58H121.742ZM136.175 37.26C138.175 37.26 139.795 37.87 141.035 39.09C142.275 40.29 142.895 42.03 142.895 44.31V54H140.195V44.7C140.195 43.06 139.785 41.81 138.965 40.95C138.145 40.07 137.025 39.63 135.605 39.63C134.165 39.63 133.015 40.08 132.155 40.98C131.315 41.88 130.895 43.19 130.895 44.91V54H128.165V37.56H130.895V39.9C131.435 39.06 132.165 38.41 133.085 37.95C134.025 37.49 135.055 37.26 136.175 37.26ZM150.685 39.81V49.5C150.685 50.3 150.855 50.87 151.195 51.21C151.535 51.53 152.125 51.69 152.965 51.69H154.975V54H152.515C150.995 54 149.855 53.65 149.095 52.95C148.335 52.25 147.955 51.1 147.955 49.5V39.81H145.825V37.56H147.955V33.42H150.685V37.56H154.975V39.81H150.685ZM187.491 33.24V54H184.761V38.52L177.861 54H175.941L169.011 38.49V54H166.281V33.24H169.221L176.901 50.4L184.581 33.24H187.491ZM199.291 54.27C197.751 54.27 196.351 53.92 195.091 53.22C193.851 52.52 192.871 51.53 192.151 50.25C191.451 48.95 191.101 47.45 191.101 45.75C191.101 44.07 191.461 42.59 192.181 41.31C192.921 40.01 193.921 39.02 195.181 38.34C196.441 37.64 197.851 37.29 199.411 37.29C200.971 37.29 202.381 37.64 203.641 38.34C204.901 39.02 205.891 40 206.611 41.28C207.351 42.56 207.721 44.05 207.721 45.75C207.721 47.45 207.341 48.95 206.581 50.25C205.841 51.53 204.831 52.52 203.551 53.22C202.271 53.92 200.851 54.27 199.291 54.27ZM199.291 51.87C200.271 51.87 201.191 51.64 202.051 51.18C202.911 50.72 203.601 50.03 204.121 49.11C204.661 48.19 204.931 47.07 204.931 45.75C204.931 44.43 204.671 43.31 204.151 42.39C203.631 41.47 202.951 40.79 202.111 40.35C201.271 39.89 200.361 39.66 199.381 39.66C198.381 39.66 197.461 39.89 196.621 40.35C195.801 40.79 195.141 41.47 194.641 42.39C194.141 43.31 193.891 44.43 193.891 45.75C193.891 47.09 194.131 48.22 194.611 49.14C195.111 50.06 195.771 50.75 196.591 51.21C197.411 51.65 198.311 51.87 199.291 51.87ZM214.04 40.62C214.6 39.64 215.42 38.84 216.5 38.22C217.58 37.6 218.81 37.29 220.19 37.29C221.67 37.29 223 37.64 224.18 38.34C225.36 39.04 226.29 40.03 226.97 41.31C227.65 42.57 227.99 44.04 227.99 45.72C227.99 47.38 227.65 48.86 226.97 50.16C226.29 51.46 225.35 52.47 224.15 53.19C222.97 53.91 221.65 54.27 220.19 54.27C218.77 54.27 217.52 53.96 216.44 53.34C215.38 52.72 214.58 51.93 214.04 50.97V54H211.31V31.8H214.04V40.62ZM225.2 45.72C225.2 44.48 224.95 43.4 224.45 42.48C223.95 41.56 223.27 40.86 222.41 40.38C221.57 39.9 220.64 39.66 219.62 39.66C218.62 39.66 217.69 39.91 216.83 40.41C215.99 40.89 215.31 41.6 214.79 42.54C214.29 43.46 214.04 44.53 214.04 45.75C214.04 46.99 214.29 48.08 214.79 49.02C215.31 49.94 215.99 50.65 216.83 51.15C217.69 51.63 218.62 51.87 219.62 51.87C220.64 51.87 221.57 51.63 222.41 51.15C223.27 50.65 223.95 49.94 224.45 49.02C224.95 48.08 225.2 46.98 225.2 45.72ZM232.993 34.89C232.473 34.89 232.033 34.71 231.673 34.35C231.313 33.99 231.133 33.55 231.133 33.03C231.133 32.51 231.313 32.07 231.673 31.71C232.033 31.35 232.473 31.17 232.993 31.17C233.493 31.17 233.913 31.35 234.253 31.71C234.613 32.07 234.793 32.51 234.793 33.03C234.793 33.55 234.613 33.99 234.253 34.35C233.913 34.71 233.493 34.89 232.993 34.89ZM234.313 37.56V54H231.583V37.56H234.313ZM241.696 31.8V54H238.966V31.8H241.696ZM261.349 45.15C261.349 45.67 261.319 46.22 261.259 46.8H248.119C248.219 48.42 248.769 49.69 249.769 50.61C250.789 51.51 252.019 51.96 253.459 51.96C254.639 51.96 255.619 51.69 256.399 51.15C257.199 50.59 257.759 49.85 258.079 48.93H261.019C260.579 50.51 259.699 51.8 258.379 52.8C257.059 53.78 255.419 54.27 253.459 54.27C251.899 54.27 250.499 53.92 249.259 53.22C248.039 52.52 247.079 51.53 246.379 50.25C245.679 48.95 245.329 47.45 245.329 45.75C245.329 44.05 245.669 42.56 246.349 41.28C247.029 40 247.979 39.02 249.199 38.34C250.439 37.64 251.859 37.29 253.459 37.29C255.019 37.29 256.399 37.63 257.599 38.31C258.799 38.99 259.719 39.93 260.359 41.13C261.019 42.31 261.349 43.65 261.349 45.15ZM258.529 44.58C258.529 43.54 258.299 42.65 257.839 41.91C257.379 41.15 256.749 40.58 255.949 40.2C255.169 39.8 254.299 39.6 253.339 39.6C251.959 39.6 250.779 40.04 249.799 40.92C248.839 41.8 248.289 43.02 248.149 44.58H258.529Z" fill="white"/>
<defs>
<linearGradient id="paint0_linear_3_126" x1="-1011.91" y1="160.906" x2="-1011.91" y2="134.641" gradientUnits="userSpaceOnUse">
<stop stop-color="#FC7300"/>
<stop offset="1" stop-color="#F8007A"/>
</linearGradient>
<linearGradient id="paint1_linear_3_126" x1="-1018.57" y1="158.639" x2="-1018.57" y2="212.425" gradientUnits="userSpaceOnUse">
<stop stop-color="#FCC400"/>
<stop offset="0.162" stop-color="#FBC000"/>
<stop offset="0.307" stop-color="#FBB500"/>
<stop offset="0.446" stop-color="#FBA300"/>
<stop offset="0.581" stop-color="#FA8900"/>
<stop offset="0.712" stop-color="#FA6800"/>
<stop offset="0.842" stop-color="#F93F00"/>
<stop offset="0.967" stop-color="#F81000"/>
<stop offset="1" stop-color="#F80300"/>
</linearGradient>
<linearGradient id="paint2_linear_3_126" x1="-1016.39" y1="164.683" x2="-1008.93" y2="162.775" gradientUnits="userSpaceOnUse">
<stop stop-color="#233B55"/>
<stop offset="1" stop-color="#131D32"/>
</linearGradient>
<linearGradient id="paint3_linear_3_126" x1="181.577" y1="160.929" x2="181.577" y2="134.635" gradientUnits="userSpaceOnUse">
<stop stop-color="#FCC400"/>
<stop offset="0.162" stop-color="#FBC000"/>
<stop offset="0.307" stop-color="#FBB500"/>
<stop offset="0.446" stop-color="#FBA300"/>
<stop offset="0.581" stop-color="#FA8900"/>
<stop offset="0.712" stop-color="#FA6800"/>
<stop offset="0.842" stop-color="#F93F00"/>
<stop offset="0.967" stop-color="#F81000"/>
<stop offset="1" stop-color="#F80300"/>
</linearGradient>
<linearGradient id="paint4_linear_3_126" x1="174.906" y1="158.649" x2="174.906" y2="212.436" gradientUnits="userSpaceOnUse">
<stop stop-color="#FC7300"/>
<stop offset="1" stop-color="#F8007A"/>
</linearGradient>
<linearGradient id="paint5_linear_3_126" x1="177.15" y1="164.718" x2="184.62" y2="162.81" gradientUnits="userSpaceOnUse">
<stop stop-color="#233B55"/>
<stop offset="1" stop-color="#131D32"/>
</linearGradient>
</defs>
</svg>
